<svg width="98" height="98" viewBox="0 0 98 98" fill="none" xmlns="http://www.w3.org/2000/svg">
<path d="M96 94.5312L53.888 66.625L74.944 53.4062L96 94.5312Z" fill="#F55951" stroke="#F55951"/>
<path fill-rule="evenodd" clip-rule="evenodd" d="M71.936 49L2 96L48.624 2L71.936 49ZM53.8879 44.5938L37.3439 56.3438L48.3733 32.8438L53.8879 44.5938Z" fill="#EDD2CB"/>
<path d="M2 96L1.55207 95.7778L0.714611 97.4663L2.27889 96.415L2 96ZM71.936 49L72.2149 49.415L72.5787 49.1705L72.3839 48.7778L71.936 49ZM48.624 2L49.0719 1.77783L48.624 0.874747L48.1761 1.77783L48.624 2ZM37.3439 56.3438L36.8913 56.1313L36.0837 57.8521L37.6335 56.7514L37.3439 56.3438ZM53.8879 44.5938L54.1775 45.0014L54.5181 44.7595L54.3406 44.3813L53.8879 44.5938ZM48.3733 32.8438L48.8259 32.6313L48.3733 31.6669L47.9207 32.6313L48.3733 32.8438ZM2.27889 96.415L72.2149 49.415L71.6571 48.585L1.72111 95.585L2.27889 96.415ZM48.1761 1.77783L1.55207 95.7778L2.44793 96.2222L49.0719 2.22217L48.1761 1.77783ZM72.3839 48.7778L49.0719 1.77783L48.1761 2.22217L71.4881 49.2222L72.3839 48.7778ZM37.6335 56.7514L54.1775 45.0014L53.5984 44.1861L37.0544 55.9361L37.6335 56.7514ZM47.9207 32.6313L36.8913 56.1313L37.7966 56.5562L48.8259 33.0562L47.9207 32.6313ZM54.3406 44.3813L48.8259 32.6313L47.9207 33.0562L53.4353 44.8062L54.3406 44.3813Z" fill="#EDD2CB"/>
</svg>
